<mxfile host="app.diagrams.net" agent="Mozilla/5.0 (Windows NT 10.0; Win64; x64) AppleWebKit/537.36 (KHTML, like Gecko) Chrome/132.0.0.0 YaBrowser/25.2.0.0 Safari/537.36" version="26.1.2">
  <diagram name="Страница — 1" id="5T752ZMV1w1UHaQIiSOU">
    <mxGraphModel dx="1354" dy="1061" grid="0" gridSize="10" guides="1" tooltips="1" connect="1" arrows="1" fold="1" page="0" pageScale="1" pageWidth="827" pageHeight="1169" math="0" shadow="0">
      <root>
        <mxCell id="0" />
        <mxCell id="1" parent="0" />
        <mxCell id="uLY9fM88qhyu7Ij_Ko55-1" value="input" style="whiteSpace=wrap;html=1;aspect=fixed;" vertex="1" parent="1">
          <mxGeometry x="-148" y="56" width="80" height="80" as="geometry" />
        </mxCell>
        <mxCell id="uLY9fM88qhyu7Ij_Ko55-3" value="" style="endArrow=classic;html=1;rounded=0;fontSize=12;startSize=8;endSize=8;curved=1;" edge="1" parent="1">
          <mxGeometry width="50" height="50" relative="1" as="geometry">
            <mxPoint x="-66" y="94" as="sourcePoint" />
            <mxPoint x="31" y="94" as="targetPoint" />
          </mxGeometry>
        </mxCell>
        <mxCell id="uLY9fM88qhyu7Ij_Ko55-4" value="clk_i" style="text;html=1;align=center;verticalAlign=middle;whiteSpace=wrap;rounded=0;" vertex="1" parent="1">
          <mxGeometry x="-138" y="136" width="60" height="30" as="geometry" />
        </mxCell>
        <mxCell id="uLY9fM88qhyu7Ij_Ko55-5" value="rst_i" style="text;strokeColor=none;fillColor=none;align=left;verticalAlign=middle;spacingLeft=4;spacingRight=4;overflow=hidden;points=[[0,0.5],[1,0.5]];portConstraint=eastwest;rotatable=0;whiteSpace=wrap;html=1;" vertex="1" parent="1">
          <mxGeometry x="-123" y="156" width="80" height="30" as="geometry" />
        </mxCell>
        <mxCell id="uLY9fM88qhyu7Ij_Ko55-6" value="valid_i" style="text;strokeColor=none;fillColor=none;align=left;verticalAlign=middle;spacingLeft=4;spacingRight=4;overflow=hidden;points=[[0,0.5],[1,0.5]];portConstraint=eastwest;rotatable=0;whiteSpace=wrap;html=1;" vertex="1" parent="1">
          <mxGeometry x="-128" y="176" width="80" height="30" as="geometry" />
        </mxCell>
        <mxCell id="uLY9fM88qhyu7Ij_Ko55-11" value="" style="edgeStyle=none;curved=1;rounded=0;orthogonalLoop=1;jettySize=auto;html=1;fontSize=12;startSize=8;endSize=8;" edge="1" parent="1" source="uLY9fM88qhyu7Ij_Ko55-7" target="uLY9fM88qhyu7Ij_Ko55-10">
          <mxGeometry relative="1" as="geometry" />
        </mxCell>
        <mxCell id="uLY9fM88qhyu7Ij_Ko55-7" value="multiplexer&lt;div&gt;(choose operations)&lt;/div&gt;" style="rounded=1;whiteSpace=wrap;html=1;" vertex="1" parent="1">
          <mxGeometry x="31" y="10" width="80" height="181" as="geometry" />
        </mxCell>
        <mxCell id="uLY9fM88qhyu7Ij_Ko55-9" value="opcode_i" style="text;html=1;align=center;verticalAlign=middle;whiteSpace=wrap;rounded=0;" vertex="1" parent="1">
          <mxGeometry x="41" y="198" width="60" height="30" as="geometry" />
        </mxCell>
        <mxCell id="uLY9fM88qhyu7Ij_Ko55-15" value="" style="edgeStyle=none;curved=1;rounded=0;orthogonalLoop=1;jettySize=auto;html=1;fontSize=12;startSize=8;endSize=8;" edge="1" parent="1" source="uLY9fM88qhyu7Ij_Ko55-10" target="uLY9fM88qhyu7Ij_Ko55-14">
          <mxGeometry relative="1" as="geometry" />
        </mxCell>
        <mxCell id="uLY9fM88qhyu7Ij_Ko55-10" value="combination logic:&lt;div&gt;operations&lt;/div&gt;&lt;div&gt;+&lt;/div&gt;&lt;div&gt;&amp;lt;=&lt;/div&gt;&lt;div&gt;&amp;lt;&amp;lt;&lt;/div&gt;&lt;div&gt;NOR&lt;/div&gt;" style="whiteSpace=wrap;html=1;rounded=1;" vertex="1" parent="1">
          <mxGeometry x="211" y="3" width="120" height="181" as="geometry" />
        </mxCell>
        <mxCell id="uLY9fM88qhyu7Ij_Ko55-12" value="first_i" style="text;html=1;align=center;verticalAlign=middle;whiteSpace=wrap;rounded=0;" vertex="1" parent="1">
          <mxGeometry x="241" y="189" width="60" height="30" as="geometry" />
        </mxCell>
        <mxCell id="uLY9fM88qhyu7Ij_Ko55-13" value="second_i" style="text;html=1;align=center;verticalAlign=middle;whiteSpace=wrap;rounded=0;" vertex="1" parent="1">
          <mxGeometry x="241" y="219" width="60" height="30" as="geometry" />
        </mxCell>
        <mxCell id="uLY9fM88qhyu7Ij_Ko55-18" value="" style="edgeStyle=none;curved=1;rounded=0;orthogonalLoop=1;jettySize=auto;html=1;fontSize=12;startSize=8;endSize=8;" edge="1" parent="1" source="uLY9fM88qhyu7Ij_Ko55-14" target="uLY9fM88qhyu7Ij_Ko55-17">
          <mxGeometry relative="1" as="geometry" />
        </mxCell>
        <mxCell id="uLY9fM88qhyu7Ij_Ko55-14" value="check overflow of +" style="whiteSpace=wrap;html=1;rounded=1;" vertex="1" parent="1">
          <mxGeometry x="451" y="63.5" width="120" height="60" as="geometry" />
        </mxCell>
        <mxCell id="uLY9fM88qhyu7Ij_Ko55-16" value="valid_i" style="text;html=1;align=center;verticalAlign=middle;whiteSpace=wrap;rounded=0;" vertex="1" parent="1">
          <mxGeometry x="721" y="139" width="60" height="30" as="geometry" />
        </mxCell>
        <mxCell id="uLY9fM88qhyu7Ij_Ko55-20" value="" style="edgeStyle=none;curved=1;rounded=0;orthogonalLoop=1;jettySize=auto;html=1;fontSize=12;startSize=8;endSize=8;" edge="1" parent="1" source="uLY9fM88qhyu7Ij_Ko55-17" target="uLY9fM88qhyu7Ij_Ko55-19">
          <mxGeometry relative="1" as="geometry" />
        </mxCell>
        <mxCell id="uLY9fM88qhyu7Ij_Ko55-17" value="check valid and write" style="whiteSpace=wrap;html=1;rounded=1;" vertex="1" parent="1">
          <mxGeometry x="691" y="63.5" width="120" height="60" as="geometry" />
        </mxCell>
        <mxCell id="uLY9fM88qhyu7Ij_Ko55-19" value="" style="shape=waypoint;sketch=0;size=6;pointerEvents=1;points=[];fillColor=default;resizable=0;rotatable=0;perimeter=centerPerimeter;snapToPoint=1;rounded=1;" vertex="1" parent="1">
          <mxGeometry x="741" y="-3" width="20" height="20" as="geometry" />
        </mxCell>
        <mxCell id="uLY9fM88qhyu7Ij_Ko55-21" value="result_o" style="text;html=1;align=center;verticalAlign=middle;whiteSpace=wrap;rounded=0;" vertex="1" parent="1">
          <mxGeometry x="721" y="-25" width="60" height="30" as="geometry" />
        </mxCell>
        <mxCell id="uLY9fM88qhyu7Ij_Ko55-22" value="valid_o" style="text;html=1;align=center;verticalAlign=middle;whiteSpace=wrap;rounded=0;" vertex="1" parent="1">
          <mxGeometry x="721" y="-52" width="60" height="30" as="geometry" />
        </mxCell>
      </root>
    </mxGraphModel>
  </diagram>
</mxfile>
